<svg width="26" height="27" viewBox="0 0 26 27" fill="none" xmlns="http://www.w3.org/2000/svg">
<path d="M12.3308 4.5485V2.10594C12.3308 1.89 12.4126 1.68291 12.5581 1.53022C12.7036 1.37753 12.9009 1.29175 13.1067 1.29175C13.3125 1.29175 13.5098 1.37753 13.6553 1.53022C13.8008 1.68291 13.8825 1.89 13.8825 2.10594V4.5485C13.8825 4.76444 13.8008 4.97153 13.6553 5.12422C13.5098 5.27691 13.3125 5.36269 13.1067 5.36269C12.9009 5.36269 12.7036 5.27691 12.5581 5.12422C12.4126 4.97153 12.3308 4.76444 12.3308 4.5485ZM13.1067 6.99107C11.8791 6.99107 10.679 7.37308 9.65831 8.08879C8.6376 8.8045 7.84204 9.82177 7.37226 11.012C6.90247 12.2021 6.77955 13.5118 7.01905 14.7753C7.25854 16.0388 7.84969 17.1994 8.71774 18.1103C9.58579 19.0212 10.6918 19.6416 11.8958 19.8929C13.0998 20.1442 14.3478 20.0153 15.482 19.5223C16.6161 19.0293 17.5855 18.1944 18.2675 17.1233C18.9495 16.0521 19.3136 14.7928 19.3136 13.5046C19.3118 11.7777 18.6573 10.122 17.4936 8.90091C16.33 7.6798 14.7523 6.99295 13.1067 6.99107ZM6.35086 7.5671C6.49645 7.71988 6.6939 7.80571 6.89978 7.80571C7.10567 7.80571 7.30312 7.71988 7.44871 7.5671C7.59429 7.41433 7.67608 7.20712 7.67608 6.99107C7.67608 6.77501 7.59429 6.5678 7.44871 6.41503L5.89698 4.78665C5.7514 4.63388 5.55395 4.54805 5.34806 4.54805C5.14217 4.54805 4.94472 4.63388 4.79914 4.78665C4.65355 4.93943 4.57177 5.14663 4.57177 5.36269C4.57177 5.57875 4.65355 5.78595 4.79914 5.93873L6.35086 7.5671ZM6.35086 19.442L4.79914 21.0704C4.65355 21.2232 4.57177 21.4304 4.57177 21.6465C4.57177 21.8625 4.65355 22.0697 4.79914 22.2225C4.94472 22.3753 5.14217 22.4611 5.34806 22.4611C5.55395 22.4611 5.7514 22.3753 5.89698 22.2225L7.44871 20.5941C7.52079 20.5185 7.57797 20.4287 7.61699 20.3298C7.656 20.231 7.67608 20.1251 7.67608 20.0181C7.67608 19.9111 7.656 19.8052 7.61699 19.7063C7.57797 19.6075 7.52079 19.5177 7.44871 19.442C7.37662 19.3664 7.29104 19.3064 7.19686 19.2654C7.10268 19.2245 7.00173 19.2034 6.89978 19.2034C6.79784 19.2034 6.69689 19.2245 6.60271 19.2654C6.50853 19.3064 6.42295 19.3664 6.35086 19.442ZM19.3136 7.80525C19.4155 7.80534 19.5164 7.78435 19.6106 7.74349C19.7048 7.70262 19.7904 7.64269 19.8625 7.5671L21.4142 5.93873C21.5598 5.78595 21.6416 5.57875 21.6416 5.36269C21.6416 5.14663 21.5598 4.93943 21.4142 4.78665C21.2686 4.63388 21.0712 4.54805 20.8653 4.54805C20.6594 4.54805 20.462 4.63388 20.3164 4.78665L18.7647 6.41503C18.656 6.5289 18.582 6.67403 18.552 6.83205C18.5221 6.99007 18.5374 7.15388 18.5962 7.30273C18.655 7.45158 18.7545 7.57879 18.8822 7.66824C19.0099 7.7577 19.16 7.80538 19.3136 7.80525ZM19.8625 19.442C19.7169 19.2893 19.5195 19.2034 19.3136 19.2034C19.1077 19.2034 18.9102 19.2893 18.7647 19.442C18.6191 19.5948 18.5373 19.802 18.5373 20.0181C18.5373 20.2341 18.6191 20.4413 18.7647 20.5941L20.3164 22.2225C20.3885 22.2981 20.474 22.3581 20.5682 22.3991C20.6624 22.44 20.7634 22.4611 20.8653 22.4611C20.9672 22.4611 21.0682 22.44 21.1624 22.3991C21.2566 22.3581 21.3421 22.2981 21.4142 22.2225C21.4863 22.1468 21.5435 22.057 21.5825 21.9582C21.6215 21.8594 21.6416 21.7534 21.6416 21.6465C21.6416 21.5395 21.6215 21.4335 21.5825 21.3347C21.5435 21.2359 21.4863 21.1461 21.4142 21.0704L19.8625 19.442ZM5.34806 13.5046C5.34806 13.2886 5.26632 13.0815 5.12082 12.9289C4.97531 12.7762 4.77797 12.6904 4.5722 12.6904H2.24461C2.03884 12.6904 1.8415 12.7762 1.69599 12.9289C1.55049 13.0815 1.46875 13.2886 1.46875 13.5046C1.46875 13.7205 1.55049 13.9276 1.69599 14.0803C1.8415 14.233 2.03884 14.3188 2.24461 14.3188H4.5722C4.77797 14.3188 4.97531 14.233 5.12082 14.0803C5.26632 13.9276 5.34806 13.7205 5.34806 13.5046ZM13.1067 21.6465C12.9009 21.6465 12.7036 21.7322 12.5581 21.8849C12.4126 22.0376 12.3308 22.2447 12.3308 22.4606V24.9032C12.3308 25.1191 12.4126 25.3262 12.5581 25.4789C12.7036 25.6316 12.9009 25.7174 13.1067 25.7174C13.3125 25.7174 13.5098 25.6316 13.6553 25.4789C13.8008 25.3262 13.8825 25.1191 13.8825 24.9032V22.4606C13.8825 22.2447 13.8008 22.0376 13.6553 21.8849C13.5098 21.7322 13.3125 21.6465 13.1067 21.6465ZM23.9688 12.6904H21.6412C21.4354 12.6904 21.238 12.7762 21.0925 12.9289C20.947 13.0815 20.8653 13.2886 20.8653 13.5046C20.8653 13.7205 20.947 13.9276 21.0925 14.0803C21.238 14.233 21.4354 14.3188 21.6412 14.3188H23.9688C24.1745 14.3188 24.3719 14.233 24.5174 14.0803C24.6629 13.9276 24.7446 13.7205 24.7446 13.5046C24.7446 13.2886 24.6629 13.0815 24.5174 12.9289C24.3719 12.7762 24.1745 12.6904 23.9688 12.6904Z" fill="#606060"/>
</svg>
