<svg width="24" height="23" viewBox="0 0 24 23" fill="none" xmlns="http://www.w3.org/2000/svg">
<g clip-path="url(#clip0_4110_14311)">
<path d="M9.67963 13.5703C9.98122 14.0988 10.3685 14.5637 10.8417 14.9639L11.0654 15.1436C11.6348 15.5773 12.2661 15.8892 12.957 16.083L12.9677 16.8184V17.1377C12.934 18.6058 12.4561 19.819 11.539 20.79L11.3359 20.9941C10.2149 22.0657 8.74758 22.6084 6.91498 22.6084C5.99771 22.6084 5.17804 22.4639 4.45306 22.1787L4.14838 22.0479C3.44719 21.721 2.87056 21.2899 2.41595 20.7559L2.22845 20.5205C1.80279 19.9493 1.46851 19.3127 1.2265 18.6094L1.12885 18.3037C0.915538 17.5892 0.7937 16.8239 0.764587 16.0078L0.979431 16.1572L1.79486 16.7148C2.04486 16.8806 2.30793 17.0355 2.58392 17.1797C2.85424 17.3209 3.09378 17.414 3.27826 17.4141C3.48556 17.4141 3.67547 17.3697 3.8349 17.2676C3.95529 17.1904 4.05004 17.0858 4.12103 16.96L4.18353 16.8271C4.39667 16.2913 4.63969 15.8395 4.91107 15.4697C5.18506 15.0964 5.47545 14.7959 5.78021 14.5645C6.08302 14.3345 6.44674 14.1466 6.87396 14.0029C7.19889 13.8937 7.52623 13.8084 7.85541 13.7471L8.18549 13.6934C8.60179 13.6362 9.09957 13.5957 9.67963 13.5703ZM21.6845 0.682617C22.1782 0.682671 22.6138 0.817973 22.997 1.08984L23.1581 1.21484C23.5722 1.56422 23.7733 1.99261 23.7734 2.5127C23.7734 2.98862 23.5942 3.58163 23.2099 4.29785C21.7634 6.90791 20.5346 8.98998 19.5244 10.5459C18.6374 11.912 17.9267 12.8599 17.3896 13.4043L17.1699 13.6133L17.1689 13.6143C16.3566 14.34 15.4524 14.6973 14.4501 14.6973C13.469 14.6973 12.622 14.3774 11.9003 13.7344L11.7578 13.6016C11.0053 12.8691 10.6337 12.008 10.6337 11.0098C10.6338 10.0049 11.0094 9.17909 11.7675 8.51953L11.7685 8.52051L20.1142 1.30664L20.1152 1.30566C20.5972 0.885536 21.1188 0.682617 21.6845 0.682617Z" fill="#E92D5D" stroke="white" stroke-width="0.4"/>
</g>
<defs>
<clipPath id="clip0_4110_14311">
<rect width="23.4421" height="22.3258" fill="white" transform="translate(0.557556 0.482422)"/>
</clipPath>
</defs>
</svg>